<mxfile host="app.diagrams.net" modified="2023-05-29T15:12:09.532Z" agent="Mozilla/5.0 (Windows NT 10.0; Win64; x64) AppleWebKit/537.36 (KHTML, like Gecko) Chrome/113.0.0.0 Safari/537.36" etag="5u5RV6ne1r0f91aa18E2" version="21.3.4" type="device">
  <diagram name="Page-1" id="7U6pc4CVt7CpyOYmcMTK">
    <mxGraphModel dx="1533" dy="689" grid="1" gridSize="10" guides="1" tooltips="1" connect="1" arrows="1" fold="1" page="1" pageScale="1" pageWidth="827" pageHeight="1169" math="0" shadow="0">
      <root>
        <mxCell id="0" />
        <mxCell id="1" parent="0" />
        <mxCell id="E6M0JtgVusHcGvOkFfoI-14" style="edgeStyle=orthogonalEdgeStyle;rounded=0;orthogonalLoop=1;jettySize=auto;html=1;entryX=0.5;entryY=0;entryDx=0;entryDy=0;" edge="1" parent="1" source="E6M0JtgVusHcGvOkFfoI-1" target="E6M0JtgVusHcGvOkFfoI-7">
          <mxGeometry relative="1" as="geometry" />
        </mxCell>
        <mxCell id="E6M0JtgVusHcGvOkFfoI-97" value="1" style="edgeLabel;html=1;align=center;verticalAlign=middle;resizable=0;points=[];" vertex="1" connectable="0" parent="E6M0JtgVusHcGvOkFfoI-14">
          <mxGeometry x="0.2974" y="-1" relative="1" as="geometry">
            <mxPoint x="5" y="-1" as="offset" />
          </mxGeometry>
        </mxCell>
        <mxCell id="E6M0JtgVusHcGvOkFfoI-62" style="edgeStyle=orthogonalEdgeStyle;rounded=0;orthogonalLoop=1;jettySize=auto;html=1;entryX=0.5;entryY=1;entryDx=0;entryDy=0;" edge="1" parent="1" source="E6M0JtgVusHcGvOkFfoI-1" target="E6M0JtgVusHcGvOkFfoI-28">
          <mxGeometry relative="1" as="geometry" />
        </mxCell>
        <mxCell id="E6M0JtgVusHcGvOkFfoI-101" value="M" style="edgeLabel;html=1;align=center;verticalAlign=middle;resizable=0;points=[];" vertex="1" connectable="0" parent="E6M0JtgVusHcGvOkFfoI-62">
          <mxGeometry x="0.3225" y="1" relative="1" as="geometry">
            <mxPoint x="6" y="1" as="offset" />
          </mxGeometry>
        </mxCell>
        <mxCell id="E6M0JtgVusHcGvOkFfoI-1" value="&lt;font style=&quot;font-size: 18px;&quot;&gt;Items&lt;/font&gt;" style="rounded=0;whiteSpace=wrap;html=1;fillColor=#FFC000;" vertex="1" parent="1">
          <mxGeometry x="512" y="253" width="120" height="60" as="geometry" />
        </mxCell>
        <mxCell id="E6M0JtgVusHcGvOkFfoI-10" style="edgeStyle=orthogonalEdgeStyle;rounded=0;orthogonalLoop=1;jettySize=auto;html=1;entryX=0;entryY=0.5;entryDx=0;entryDy=0;" edge="1" parent="1" source="E6M0JtgVusHcGvOkFfoI-2" target="E6M0JtgVusHcGvOkFfoI-5">
          <mxGeometry relative="1" as="geometry" />
        </mxCell>
        <mxCell id="E6M0JtgVusHcGvOkFfoI-91" value="1" style="edgeLabel;html=1;align=center;verticalAlign=middle;resizable=0;points=[];" vertex="1" connectable="0" parent="E6M0JtgVusHcGvOkFfoI-10">
          <mxGeometry x="0.266" relative="1" as="geometry">
            <mxPoint x="1" y="-8" as="offset" />
          </mxGeometry>
        </mxCell>
        <mxCell id="E6M0JtgVusHcGvOkFfoI-12" style="edgeStyle=orthogonalEdgeStyle;rounded=0;orthogonalLoop=1;jettySize=auto;html=1;entryX=0.5;entryY=0;entryDx=0;entryDy=0;" edge="1" parent="1" source="E6M0JtgVusHcGvOkFfoI-2" target="E6M0JtgVusHcGvOkFfoI-6">
          <mxGeometry relative="1" as="geometry" />
        </mxCell>
        <mxCell id="E6M0JtgVusHcGvOkFfoI-95" value="1" style="edgeLabel;html=1;align=center;verticalAlign=middle;resizable=0;points=[];" vertex="1" connectable="0" parent="E6M0JtgVusHcGvOkFfoI-12">
          <mxGeometry x="0.2149" relative="1" as="geometry">
            <mxPoint x="3" y="1" as="offset" />
          </mxGeometry>
        </mxCell>
        <mxCell id="E6M0JtgVusHcGvOkFfoI-60" style="edgeStyle=orthogonalEdgeStyle;rounded=0;orthogonalLoop=1;jettySize=auto;html=1;entryX=0.5;entryY=1;entryDx=0;entryDy=0;" edge="1" parent="1" source="E6M0JtgVusHcGvOkFfoI-2" target="E6M0JtgVusHcGvOkFfoI-35">
          <mxGeometry relative="1" as="geometry" />
        </mxCell>
        <mxCell id="E6M0JtgVusHcGvOkFfoI-99" value="1" style="edgeLabel;html=1;align=center;verticalAlign=middle;resizable=0;points=[];" vertex="1" connectable="0" parent="E6M0JtgVusHcGvOkFfoI-60">
          <mxGeometry x="0.3049" y="2" relative="1" as="geometry">
            <mxPoint x="6" as="offset" />
          </mxGeometry>
        </mxCell>
        <mxCell id="E6M0JtgVusHcGvOkFfoI-2" value="&lt;font style=&quot;font-size: 18px;&quot;&gt;Users&lt;/font&gt;" style="rounded=0;whiteSpace=wrap;html=1;fillColor=#FFC000;" vertex="1" parent="1">
          <mxGeometry x="182" y="253" width="120" height="60" as="geometry" />
        </mxCell>
        <mxCell id="E6M0JtgVusHcGvOkFfoI-3" value="&lt;font style=&quot;font-size: 18px;&quot;&gt;Location&lt;/font&gt;" style="rounded=0;whiteSpace=wrap;html=1;fillColor=#FFC000;" vertex="1" parent="1">
          <mxGeometry x="352" y="90" width="120" height="60" as="geometry" />
        </mxCell>
        <mxCell id="E6M0JtgVusHcGvOkFfoI-4" value="&lt;font style=&quot;font-size: 18px;&quot;&gt;Movement&lt;/font&gt;" style="rounded=0;whiteSpace=wrap;html=1;fillColor=#FFC000;" vertex="1" parent="1">
          <mxGeometry x="352" y="430" width="120" height="60" as="geometry" />
        </mxCell>
        <mxCell id="E6M0JtgVusHcGvOkFfoI-11" style="edgeStyle=orthogonalEdgeStyle;rounded=0;orthogonalLoop=1;jettySize=auto;html=1;entryX=0;entryY=0.5;entryDx=0;entryDy=0;" edge="1" parent="1" source="E6M0JtgVusHcGvOkFfoI-5" target="E6M0JtgVusHcGvOkFfoI-1">
          <mxGeometry relative="1" as="geometry" />
        </mxCell>
        <mxCell id="E6M0JtgVusHcGvOkFfoI-93" value="M" style="edgeLabel;html=1;align=center;verticalAlign=middle;resizable=0;points=[];" vertex="1" connectable="0" parent="E6M0JtgVusHcGvOkFfoI-11">
          <mxGeometry x="-0.8556" y="-1" relative="1" as="geometry">
            <mxPoint y="-9" as="offset" />
          </mxGeometry>
        </mxCell>
        <mxCell id="E6M0JtgVusHcGvOkFfoI-5" value="Dapat Menambahkan" style="shape=rhombus;perimeter=rhombusPerimeter;whiteSpace=wrap;html=1;align=center;fillColor=#66FF99;" vertex="1" parent="1">
          <mxGeometry x="342" y="243" width="140" height="80" as="geometry" />
        </mxCell>
        <mxCell id="E6M0JtgVusHcGvOkFfoI-13" style="edgeStyle=orthogonalEdgeStyle;rounded=0;orthogonalLoop=1;jettySize=auto;html=1;entryX=0;entryY=0.5;entryDx=0;entryDy=0;exitX=0.5;exitY=1;exitDx=0;exitDy=0;" edge="1" parent="1" source="E6M0JtgVusHcGvOkFfoI-6" target="E6M0JtgVusHcGvOkFfoI-4">
          <mxGeometry relative="1" as="geometry" />
        </mxCell>
        <mxCell id="E6M0JtgVusHcGvOkFfoI-96" value="M" style="edgeLabel;html=1;align=center;verticalAlign=middle;resizable=0;points=[];" vertex="1" connectable="0" parent="E6M0JtgVusHcGvOkFfoI-13">
          <mxGeometry x="-0.9098" relative="1" as="geometry">
            <mxPoint x="5" as="offset" />
          </mxGeometry>
        </mxCell>
        <mxCell id="E6M0JtgVusHcGvOkFfoI-6" value="Dapat&lt;br&gt;Menyebabkan" style="shape=rhombus;perimeter=rhombusPerimeter;whiteSpace=wrap;html=1;align=center;fillColor=#66FF99;" vertex="1" parent="1">
          <mxGeometry x="182" y="356" width="120" height="60" as="geometry" />
        </mxCell>
        <mxCell id="E6M0JtgVusHcGvOkFfoI-15" style="edgeStyle=orthogonalEdgeStyle;rounded=0;orthogonalLoop=1;jettySize=auto;html=1;entryX=1;entryY=0.5;entryDx=0;entryDy=0;exitX=0.5;exitY=1;exitDx=0;exitDy=0;" edge="1" parent="1" source="E6M0JtgVusHcGvOkFfoI-7" target="E6M0JtgVusHcGvOkFfoI-4">
          <mxGeometry relative="1" as="geometry" />
        </mxCell>
        <mxCell id="E6M0JtgVusHcGvOkFfoI-98" value="M" style="edgeLabel;html=1;align=center;verticalAlign=middle;resizable=0;points=[];" vertex="1" connectable="0" parent="E6M0JtgVusHcGvOkFfoI-15">
          <mxGeometry x="-0.8543" relative="1" as="geometry">
            <mxPoint x="5" y="-4" as="offset" />
          </mxGeometry>
        </mxCell>
        <mxCell id="E6M0JtgVusHcGvOkFfoI-7" value="Dapat Memiliki" style="shape=rhombus;perimeter=rhombusPerimeter;whiteSpace=wrap;html=1;align=center;fillColor=#66FF99;" vertex="1" parent="1">
          <mxGeometry x="512" y="356" width="120" height="60" as="geometry" />
        </mxCell>
        <mxCell id="E6M0JtgVusHcGvOkFfoI-18" value="&lt;u&gt;UserID&lt;/u&gt;" style="ellipse;whiteSpace=wrap;html=1;align=center;fillColor=#FFFFCC;" vertex="1" parent="1">
          <mxGeometry x="73" y="170" width="80" height="30" as="geometry" />
        </mxCell>
        <mxCell id="E6M0JtgVusHcGvOkFfoI-19" value="Name" style="ellipse;whiteSpace=wrap;html=1;align=center;fillColor=#FFFFCC;" vertex="1" parent="1">
          <mxGeometry x="3" y="268" width="80" height="30" as="geometry" />
        </mxCell>
        <mxCell id="E6M0JtgVusHcGvOkFfoI-20" value="Email" style="ellipse;whiteSpace=wrap;html=1;align=center;fillColor=#FFFFCC;" vertex="1" parent="1">
          <mxGeometry x="73" y="371" width="80" height="30" as="geometry" />
        </mxCell>
        <mxCell id="E6M0JtgVusHcGvOkFfoI-21" value="Password" style="ellipse;whiteSpace=wrap;html=1;align=center;fillColor=#FFFFCC;" vertex="1" parent="1">
          <mxGeometry x="33" y="320" width="80" height="30" as="geometry" />
        </mxCell>
        <mxCell id="E6M0JtgVusHcGvOkFfoI-22" value="Role" style="ellipse;whiteSpace=wrap;html=1;align=center;fillColor=#FFFFCC;" vertex="1" parent="1">
          <mxGeometry x="33" y="220" width="80" height="30" as="geometry" />
        </mxCell>
        <mxCell id="E6M0JtgVusHcGvOkFfoI-23" value="MovementID" style="ellipse;whiteSpace=wrap;html=1;align=center;fontStyle=4;fillColor=#FFFFCC;" vertex="1" parent="1">
          <mxGeometry x="97" y="523" width="80" height="30" as="geometry" />
        </mxCell>
        <mxCell id="E6M0JtgVusHcGvOkFfoI-24" value="&lt;i&gt;ItemID&lt;/i&gt;" style="ellipse;whiteSpace=wrap;html=1;align=center;fillColor=#FFFFCC;" vertex="1" parent="1">
          <mxGeometry x="207" y="553" width="80" height="30" as="geometry" />
        </mxCell>
        <mxCell id="E6M0JtgVusHcGvOkFfoI-25" value="&lt;i&gt;UserID&lt;/i&gt;" style="ellipse;whiteSpace=wrap;html=1;align=center;fillColor=#FFFFCC;" vertex="1" parent="1">
          <mxGeometry x="317" y="583" width="80" height="30" as="geometry" />
        </mxCell>
        <mxCell id="E6M0JtgVusHcGvOkFfoI-26" value="&lt;i&gt;LocationID&lt;/i&gt;" style="ellipse;whiteSpace=wrap;html=1;align=center;fillColor=#FFFFCC;" vertex="1" parent="1">
          <mxGeometry x="427" y="583" width="80" height="30" as="geometry" />
        </mxCell>
        <mxCell id="E6M0JtgVusHcGvOkFfoI-63" style="edgeStyle=orthogonalEdgeStyle;rounded=0;orthogonalLoop=1;jettySize=auto;html=1;entryX=1;entryY=0.5;entryDx=0;entryDy=0;exitX=0.5;exitY=0;exitDx=0;exitDy=0;" edge="1" parent="1" source="E6M0JtgVusHcGvOkFfoI-28" target="E6M0JtgVusHcGvOkFfoI-3">
          <mxGeometry relative="1" as="geometry" />
        </mxCell>
        <mxCell id="E6M0JtgVusHcGvOkFfoI-102" value="1" style="edgeLabel;html=1;align=center;verticalAlign=middle;resizable=0;points=[];" vertex="1" connectable="0" parent="E6M0JtgVusHcGvOkFfoI-63">
          <mxGeometry x="-0.8542" y="1" relative="1" as="geometry">
            <mxPoint x="5" y="1" as="offset" />
          </mxGeometry>
        </mxCell>
        <mxCell id="E6M0JtgVusHcGvOkFfoI-28" value="Ditempatkan di" style="shape=rhombus;perimeter=rhombusPerimeter;whiteSpace=wrap;html=1;align=center;fillColor=#66FF99;" vertex="1" parent="1">
          <mxGeometry x="512" y="155" width="120" height="60" as="geometry" />
        </mxCell>
        <mxCell id="E6M0JtgVusHcGvOkFfoI-61" style="edgeStyle=orthogonalEdgeStyle;rounded=0;orthogonalLoop=1;jettySize=auto;html=1;entryX=0;entryY=0.5;entryDx=0;entryDy=0;exitX=0.5;exitY=0;exitDx=0;exitDy=0;" edge="1" parent="1" source="E6M0JtgVusHcGvOkFfoI-35" target="E6M0JtgVusHcGvOkFfoI-3">
          <mxGeometry relative="1" as="geometry" />
        </mxCell>
        <mxCell id="E6M0JtgVusHcGvOkFfoI-100" value="M" style="edgeLabel;html=1;align=center;verticalAlign=middle;resizable=0;points=[];" vertex="1" connectable="0" parent="E6M0JtgVusHcGvOkFfoI-61">
          <mxGeometry x="-0.8335" relative="1" as="geometry">
            <mxPoint x="5" y="3" as="offset" />
          </mxGeometry>
        </mxCell>
        <mxCell id="E6M0JtgVusHcGvOkFfoI-35" value="Dapat&lt;br&gt;Menambahkan" style="shape=rhombus;perimeter=rhombusPerimeter;whiteSpace=wrap;html=1;align=center;fillColor=#66FF99;" vertex="1" parent="1">
          <mxGeometry x="182" y="155" width="120" height="60" as="geometry" />
        </mxCell>
        <mxCell id="E6M0JtgVusHcGvOkFfoI-36" value="Date" style="ellipse;whiteSpace=wrap;html=1;align=center;fillColor=#FFFFCC;" vertex="1" parent="1">
          <mxGeometry x="537" y="553" width="80" height="30" as="geometry" />
        </mxCell>
        <mxCell id="E6M0JtgVusHcGvOkFfoI-37" value="Note" style="ellipse;whiteSpace=wrap;html=1;align=center;fillColor=#FFFFCC;" vertex="1" parent="1">
          <mxGeometry x="647" y="523" width="80" height="30" as="geometry" />
        </mxCell>
        <mxCell id="E6M0JtgVusHcGvOkFfoI-41" value="ItemID" style="ellipse;whiteSpace=wrap;html=1;align=center;fontStyle=4;fillColor=#FFFFCC;" vertex="1" parent="1">
          <mxGeometry x="663" y="143" width="80" height="30" as="geometry" />
        </mxCell>
        <mxCell id="E6M0JtgVusHcGvOkFfoI-42" value="Name" style="ellipse;whiteSpace=wrap;html=1;align=center;fillColor=#FFFFCC;" vertex="1" parent="1">
          <mxGeometry x="703" y="192.5" width="80" height="30" as="geometry" />
        </mxCell>
        <mxCell id="E6M0JtgVusHcGvOkFfoI-43" value="Quantity" style="ellipse;whiteSpace=wrap;html=1;align=center;fillColor=#FFFFCC;" vertex="1" parent="1">
          <mxGeometry x="743" y="242.5" width="80" height="30" as="geometry" />
        </mxCell>
        <mxCell id="E6M0JtgVusHcGvOkFfoI-44" value="Category" style="ellipse;whiteSpace=wrap;html=1;align=center;fillColor=#FFFFCC;" vertex="1" parent="1">
          <mxGeometry x="743" y="292.5" width="80" height="30" as="geometry" />
        </mxCell>
        <mxCell id="E6M0JtgVusHcGvOkFfoI-45" value="&lt;i&gt;LocationID&lt;/i&gt;" style="ellipse;whiteSpace=wrap;html=1;align=center;fillColor=#FFFFCC;" vertex="1" parent="1">
          <mxGeometry x="703" y="343.5" width="80" height="30" as="geometry" />
        </mxCell>
        <mxCell id="E6M0JtgVusHcGvOkFfoI-46" value="DateAdded" style="ellipse;whiteSpace=wrap;html=1;align=center;fillColor=#FFFFCC;" vertex="1" parent="1">
          <mxGeometry x="663" y="398" width="80" height="30" as="geometry" />
        </mxCell>
        <mxCell id="E6M0JtgVusHcGvOkFfoI-56" value="LocationID" style="ellipse;whiteSpace=wrap;html=1;align=center;fontStyle=4;fillColor=#FFFFCC;" vertex="1" parent="1">
          <mxGeometry x="196" y="30" width="80" height="30" as="geometry" />
        </mxCell>
        <mxCell id="E6M0JtgVusHcGvOkFfoI-57" value="Name" style="ellipse;whiteSpace=wrap;html=1;align=center;fillColor=#FFFFCC;" vertex="1" parent="1">
          <mxGeometry x="306" width="80" height="30" as="geometry" />
        </mxCell>
        <mxCell id="E6M0JtgVusHcGvOkFfoI-58" value="Description" style="ellipse;whiteSpace=wrap;html=1;align=center;fillColor=#FFFFCC;" vertex="1" parent="1">
          <mxGeometry x="446" width="80" height="30" as="geometry" />
        </mxCell>
        <mxCell id="E6M0JtgVusHcGvOkFfoI-59" value="Address" style="ellipse;whiteSpace=wrap;html=1;align=center;fillColor=#FFFFCC;" vertex="1" parent="1">
          <mxGeometry x="556" y="30" width="80" height="30" as="geometry" />
        </mxCell>
        <mxCell id="E6M0JtgVusHcGvOkFfoI-68" value="" style="endArrow=none;html=1;rounded=0;entryX=1;entryY=0.5;entryDx=0;entryDy=0;exitX=0;exitY=0.5;exitDx=0;exitDy=0;edgeStyle=orthogonalEdgeStyle;curved=1;" edge="1" parent="1" source="E6M0JtgVusHcGvOkFfoI-2" target="E6M0JtgVusHcGvOkFfoI-18">
          <mxGeometry width="50" height="50" relative="1" as="geometry">
            <mxPoint x="483" y="273" as="sourcePoint" />
            <mxPoint x="533" y="223" as="targetPoint" />
          </mxGeometry>
        </mxCell>
        <mxCell id="E6M0JtgVusHcGvOkFfoI-69" value="" style="endArrow=none;html=1;rounded=0;entryX=1;entryY=0.5;entryDx=0;entryDy=0;exitX=0;exitY=0.5;exitDx=0;exitDy=0;edgeStyle=orthogonalEdgeStyle;curved=1;" edge="1" parent="1" source="E6M0JtgVusHcGvOkFfoI-2" target="E6M0JtgVusHcGvOkFfoI-22">
          <mxGeometry width="50" height="50" relative="1" as="geometry">
            <mxPoint x="192" y="293" as="sourcePoint" />
            <mxPoint x="143" y="195" as="targetPoint" />
          </mxGeometry>
        </mxCell>
        <mxCell id="E6M0JtgVusHcGvOkFfoI-70" value="" style="endArrow=none;html=1;rounded=0;entryX=1;entryY=0.5;entryDx=0;entryDy=0;exitX=0;exitY=0.5;exitDx=0;exitDy=0;edgeStyle=orthogonalEdgeStyle;curved=1;" edge="1" parent="1" source="E6M0JtgVusHcGvOkFfoI-2" target="E6M0JtgVusHcGvOkFfoI-19">
          <mxGeometry width="50" height="50" relative="1" as="geometry">
            <mxPoint x="192" y="293" as="sourcePoint" />
            <mxPoint x="103" y="245" as="targetPoint" />
          </mxGeometry>
        </mxCell>
        <mxCell id="E6M0JtgVusHcGvOkFfoI-71" value="" style="endArrow=none;html=1;rounded=0;entryX=1;entryY=0.5;entryDx=0;entryDy=0;exitX=0;exitY=0.5;exitDx=0;exitDy=0;edgeStyle=orthogonalEdgeStyle;curved=1;" edge="1" parent="1" source="E6M0JtgVusHcGvOkFfoI-2" target="E6M0JtgVusHcGvOkFfoI-21">
          <mxGeometry width="50" height="50" relative="1" as="geometry">
            <mxPoint x="192" y="293" as="sourcePoint" />
            <mxPoint x="63" y="295" as="targetPoint" />
          </mxGeometry>
        </mxCell>
        <mxCell id="E6M0JtgVusHcGvOkFfoI-72" value="" style="endArrow=none;html=1;rounded=0;entryX=1;entryY=0.5;entryDx=0;entryDy=0;exitX=0;exitY=0.5;exitDx=0;exitDy=0;edgeStyle=orthogonalEdgeStyle;curved=1;" edge="1" parent="1" source="E6M0JtgVusHcGvOkFfoI-2" target="E6M0JtgVusHcGvOkFfoI-20">
          <mxGeometry width="50" height="50" relative="1" as="geometry">
            <mxPoint x="192" y="293" as="sourcePoint" />
            <mxPoint x="103" y="345" as="targetPoint" />
          </mxGeometry>
        </mxCell>
        <mxCell id="E6M0JtgVusHcGvOkFfoI-73" value="" style="endArrow=none;html=1;rounded=0;entryX=0.5;entryY=1;entryDx=0;entryDy=0;exitX=0.5;exitY=0;exitDx=0;exitDy=0;edgeStyle=orthogonalEdgeStyle;curved=1;" edge="1" parent="1" source="E6M0JtgVusHcGvOkFfoI-3" target="E6M0JtgVusHcGvOkFfoI-56">
          <mxGeometry width="50" height="50" relative="1" as="geometry">
            <mxPoint x="513" y="273" as="sourcePoint" />
            <mxPoint x="563" y="223" as="targetPoint" />
          </mxGeometry>
        </mxCell>
        <mxCell id="E6M0JtgVusHcGvOkFfoI-74" value="" style="endArrow=none;html=1;rounded=0;entryX=0.5;entryY=1;entryDx=0;entryDy=0;exitX=0.5;exitY=0;exitDx=0;exitDy=0;edgeStyle=orthogonalEdgeStyle;curved=1;" edge="1" parent="1" source="E6M0JtgVusHcGvOkFfoI-3" target="E6M0JtgVusHcGvOkFfoI-57">
          <mxGeometry width="50" height="50" relative="1" as="geometry">
            <mxPoint x="422" y="100" as="sourcePoint" />
            <mxPoint x="286" y="55" as="targetPoint" />
          </mxGeometry>
        </mxCell>
        <mxCell id="E6M0JtgVusHcGvOkFfoI-75" value="" style="endArrow=none;html=1;rounded=0;entryX=0.5;entryY=1;entryDx=0;entryDy=0;exitX=0.5;exitY=0;exitDx=0;exitDy=0;edgeStyle=orthogonalEdgeStyle;curved=1;" edge="1" parent="1" source="E6M0JtgVusHcGvOkFfoI-3" target="E6M0JtgVusHcGvOkFfoI-58">
          <mxGeometry width="50" height="50" relative="1" as="geometry">
            <mxPoint x="422" y="100" as="sourcePoint" />
            <mxPoint x="396" y="25" as="targetPoint" />
          </mxGeometry>
        </mxCell>
        <mxCell id="E6M0JtgVusHcGvOkFfoI-76" value="" style="endArrow=none;html=1;rounded=0;entryX=0.5;entryY=1;entryDx=0;entryDy=0;exitX=0.5;exitY=0;exitDx=0;exitDy=0;edgeStyle=orthogonalEdgeStyle;curved=1;" edge="1" parent="1" source="E6M0JtgVusHcGvOkFfoI-3" target="E6M0JtgVusHcGvOkFfoI-59">
          <mxGeometry width="50" height="50" relative="1" as="geometry">
            <mxPoint x="422" y="100" as="sourcePoint" />
            <mxPoint x="456" y="25" as="targetPoint" />
          </mxGeometry>
        </mxCell>
        <mxCell id="E6M0JtgVusHcGvOkFfoI-79" value="" style="endArrow=none;html=1;rounded=0;entryX=0;entryY=0.5;entryDx=0;entryDy=0;exitX=1;exitY=0.5;exitDx=0;exitDy=0;edgeStyle=orthogonalEdgeStyle;curved=1;" edge="1" parent="1" source="E6M0JtgVusHcGvOkFfoI-1" target="E6M0JtgVusHcGvOkFfoI-41">
          <mxGeometry width="50" height="50" relative="1" as="geometry">
            <mxPoint x="483" y="273" as="sourcePoint" />
            <mxPoint x="533" y="223" as="targetPoint" />
          </mxGeometry>
        </mxCell>
        <mxCell id="E6M0JtgVusHcGvOkFfoI-80" value="" style="endArrow=none;html=1;rounded=0;entryX=0;entryY=0.5;entryDx=0;entryDy=0;exitX=1;exitY=0.5;exitDx=0;exitDy=0;edgeStyle=orthogonalEdgeStyle;curved=1;" edge="1" parent="1" source="E6M0JtgVusHcGvOkFfoI-1" target="E6M0JtgVusHcGvOkFfoI-42">
          <mxGeometry width="50" height="50" relative="1" as="geometry">
            <mxPoint x="642" y="293" as="sourcePoint" />
            <mxPoint x="723" y="168" as="targetPoint" />
          </mxGeometry>
        </mxCell>
        <mxCell id="E6M0JtgVusHcGvOkFfoI-81" value="" style="endArrow=none;html=1;rounded=0;entryX=0;entryY=0.5;entryDx=0;entryDy=0;exitX=1;exitY=0.5;exitDx=0;exitDy=0;edgeStyle=orthogonalEdgeStyle;curved=1;" edge="1" parent="1" source="E6M0JtgVusHcGvOkFfoI-1" target="E6M0JtgVusHcGvOkFfoI-43">
          <mxGeometry width="50" height="50" relative="1" as="geometry">
            <mxPoint x="642" y="293" as="sourcePoint" />
            <mxPoint x="763" y="218" as="targetPoint" />
          </mxGeometry>
        </mxCell>
        <mxCell id="E6M0JtgVusHcGvOkFfoI-82" value="" style="endArrow=none;html=1;rounded=0;entryX=0;entryY=0.5;entryDx=0;entryDy=0;exitX=1;exitY=0.5;exitDx=0;exitDy=0;edgeStyle=orthogonalEdgeStyle;curved=1;" edge="1" parent="1" source="E6M0JtgVusHcGvOkFfoI-1" target="E6M0JtgVusHcGvOkFfoI-44">
          <mxGeometry width="50" height="50" relative="1" as="geometry">
            <mxPoint x="642" y="293" as="sourcePoint" />
            <mxPoint x="803" y="268" as="targetPoint" />
          </mxGeometry>
        </mxCell>
        <mxCell id="E6M0JtgVusHcGvOkFfoI-83" value="" style="endArrow=none;html=1;rounded=0;entryX=0;entryY=0.5;entryDx=0;entryDy=0;exitX=1;exitY=0.5;exitDx=0;exitDy=0;edgeStyle=orthogonalEdgeStyle;curved=1;" edge="1" parent="1" source="E6M0JtgVusHcGvOkFfoI-1" target="E6M0JtgVusHcGvOkFfoI-45">
          <mxGeometry width="50" height="50" relative="1" as="geometry">
            <mxPoint x="642" y="293" as="sourcePoint" />
            <mxPoint x="803" y="318" as="targetPoint" />
          </mxGeometry>
        </mxCell>
        <mxCell id="E6M0JtgVusHcGvOkFfoI-84" value="" style="endArrow=none;html=1;rounded=0;entryX=0;entryY=0.5;entryDx=0;entryDy=0;exitX=1;exitY=0.5;exitDx=0;exitDy=0;edgeStyle=orthogonalEdgeStyle;curved=1;" edge="1" parent="1" source="E6M0JtgVusHcGvOkFfoI-1" target="E6M0JtgVusHcGvOkFfoI-46">
          <mxGeometry width="50" height="50" relative="1" as="geometry">
            <mxPoint x="642" y="293" as="sourcePoint" />
            <mxPoint x="763" y="369" as="targetPoint" />
          </mxGeometry>
        </mxCell>
        <mxCell id="E6M0JtgVusHcGvOkFfoI-85" value="" style="endArrow=none;html=1;rounded=0;entryX=0.5;entryY=1;entryDx=0;entryDy=0;exitX=0.5;exitY=0;exitDx=0;exitDy=0;edgeStyle=orthogonalEdgeStyle;curved=1;" edge="1" parent="1" source="E6M0JtgVusHcGvOkFfoI-23" target="E6M0JtgVusHcGvOkFfoI-4">
          <mxGeometry width="50" height="50" relative="1" as="geometry">
            <mxPoint x="563" y="533" as="sourcePoint" />
            <mxPoint x="613" y="483" as="targetPoint" />
          </mxGeometry>
        </mxCell>
        <mxCell id="E6M0JtgVusHcGvOkFfoI-86" value="" style="endArrow=none;html=1;rounded=0;entryX=0.5;entryY=1;entryDx=0;entryDy=0;exitX=0.5;exitY=0;exitDx=0;exitDy=0;edgeStyle=orthogonalEdgeStyle;curved=1;" edge="1" parent="1" source="E6M0JtgVusHcGvOkFfoI-24" target="E6M0JtgVusHcGvOkFfoI-4">
          <mxGeometry width="50" height="50" relative="1" as="geometry">
            <mxPoint x="147" y="540" as="sourcePoint" />
            <mxPoint x="422" y="500" as="targetPoint" />
          </mxGeometry>
        </mxCell>
        <mxCell id="E6M0JtgVusHcGvOkFfoI-87" value="" style="endArrow=none;html=1;rounded=0;entryX=0.5;entryY=1;entryDx=0;entryDy=0;exitX=0.5;exitY=0;exitDx=0;exitDy=0;edgeStyle=orthogonalEdgeStyle;curved=1;" edge="1" parent="1" source="E6M0JtgVusHcGvOkFfoI-25" target="E6M0JtgVusHcGvOkFfoI-4">
          <mxGeometry width="50" height="50" relative="1" as="geometry">
            <mxPoint x="257" y="570" as="sourcePoint" />
            <mxPoint x="422" y="500" as="targetPoint" />
          </mxGeometry>
        </mxCell>
        <mxCell id="E6M0JtgVusHcGvOkFfoI-88" value="" style="endArrow=none;html=1;rounded=0;entryX=0.5;entryY=1;entryDx=0;entryDy=0;exitX=0.5;exitY=0;exitDx=0;exitDy=0;edgeStyle=orthogonalEdgeStyle;curved=1;" edge="1" parent="1" source="E6M0JtgVusHcGvOkFfoI-26" target="E6M0JtgVusHcGvOkFfoI-4">
          <mxGeometry width="50" height="50" relative="1" as="geometry">
            <mxPoint x="367" y="600" as="sourcePoint" />
            <mxPoint x="422" y="500" as="targetPoint" />
          </mxGeometry>
        </mxCell>
        <mxCell id="E6M0JtgVusHcGvOkFfoI-89" value="" style="endArrow=none;html=1;rounded=0;entryX=0.5;entryY=1;entryDx=0;entryDy=0;exitX=0.5;exitY=0;exitDx=0;exitDy=0;edgeStyle=orthogonalEdgeStyle;curved=1;" edge="1" parent="1" source="E6M0JtgVusHcGvOkFfoI-36" target="E6M0JtgVusHcGvOkFfoI-4">
          <mxGeometry width="50" height="50" relative="1" as="geometry">
            <mxPoint x="477" y="600" as="sourcePoint" />
            <mxPoint x="422" y="500" as="targetPoint" />
          </mxGeometry>
        </mxCell>
        <mxCell id="E6M0JtgVusHcGvOkFfoI-90" value="" style="endArrow=none;html=1;rounded=0;entryX=0.5;entryY=1;entryDx=0;entryDy=0;exitX=0.5;exitY=0;exitDx=0;exitDy=0;edgeStyle=orthogonalEdgeStyle;curved=1;" edge="1" parent="1" source="E6M0JtgVusHcGvOkFfoI-37" target="E6M0JtgVusHcGvOkFfoI-4">
          <mxGeometry width="50" height="50" relative="1" as="geometry">
            <mxPoint x="587" y="570" as="sourcePoint" />
            <mxPoint x="422" y="500" as="targetPoint" />
          </mxGeometry>
        </mxCell>
      </root>
    </mxGraphModel>
  </diagram>
</mxfile>
